# MagicaVoxel @ Ephtracy

# group
o 

# material
mtllib coin.mtl
usemtl palette

# normals
vn -1 0 0
vn 1 0 0
vn 0 0 1
vn 0 0 -1
vn 0 -1 0
vn 0 1 0

# texcoords
vt 0.279297 0.5
vt 0.560547 0.5
vt 0.865234 0.5
vt 0.869141 0.5
vt 0.990234 0.5
vt 0.994141 0.5

# verts
v -0.5 0.2 -7.45058e-09
v -0.5 0.2 -0.1
v -0.5 0.3 -7.45058e-09
v -0.5 0.3 -0.1
v -0.5 0.6 -7.45058e-09
v -0.5 0.6 -0.1
v -0.5 0.7 -7.45058e-09
v -0.5 0.7 -0.1
v -0.5 0.8 -7.45058e-09
v -0.5 0.8 -0.1
v -0.4 0.1 -7.45058e-09
v -0.4 0.1 -0.1
v -0.4 0.2 -7.45058e-09
v -0.4 0.2 -0.1
v -0.4 0.8 -7.45058e-09
v -0.4 0.8 -0.1
v -0.4 0.9 -7.45058e-09
v -0.4 0.9 -0.1
v -0.3 0 -7.45058e-09
v -0.3 0 -0.1
v -0.3 0.1 -7.45058e-09
v -0.3 0.1 -0.1
v -0.3 0.9 -7.45058e-09
v -0.3 0.9 -0.1
v -0.3 1 -7.45058e-09
v -0.3 1 -0.1
v 0.3 0 -7.45058e-09
v 0.3 0 -0.1
v 0.3 0.1 -7.45058e-09
v 0.3 0.1 -0.1
v 0.3 0.9 -7.45058e-09
v 0.3 0.9 -0.1
v 0.3 1 -7.45058e-09
v 0.3 1 -0.1
v 0.4 0.1 -7.45058e-09
v 0.4 0.1 -0.1
v 0.4 0.2 -7.45058e-09
v 0.4 0.2 -0.1
v 0.4 0.8 -7.45058e-09
v 0.4 0.8 -0.1
v 0.4 0.9 -7.45058e-09
v 0.4 0.9 -0.1
v 0.5 0.2 -7.45058e-09
v 0.5 0.2 -0.1
v 0.5 0.3 -7.45058e-09
v 0.5 0.3 -0.1
v 0.5 0.4 -7.45058e-09
v 0.5 0.4 -0.1
v 0.5 0.8 -7.45058e-09
v 0.5 0.8 -0.1
v -0.5 0.2 -7.45058e-09
v -0.5 0.3 -7.45058e-09
v -0.5 0.6 -7.45058e-09
v -0.5 0.7 -7.45058e-09
v -0.5 0.8 -7.45058e-09
v -0.4 0.1 -7.45058e-09
v -0.4 0.2 -7.45058e-09
v -0.4 0.3 -7.45058e-09
v -0.4 0.6 -7.45058e-09
v -0.4 0.7 -7.45058e-09
v -0.4 0.8 -7.45058e-09
v -0.4 0.9 -7.45058e-09
v -0.3 0 -7.45058e-09
v -0.3 0.1 -7.45058e-09
v -0.3 0.2 -7.45058e-09
v -0.3 0.8 -7.45058e-09
v -0.3 0.9 -7.45058e-09
v -0.3 1 -7.45058e-09
v -0.2 0 -7.45058e-09
v -0.2 0.1 -7.45058e-09
v -0.2 0.3 -7.45058e-09
v -0.2 0.7 -7.45058e-09
v -0.2 0.9 -7.45058e-09
v -0.2 1 -7.45058e-09
v -0.1 0.4 -7.45058e-09
v -0.1 0.6 -7.45058e-09
v 0.1 0 -7.45058e-09
v 0.1 0.1 -7.45058e-09
v 0.1 0.4 -7.45058e-09
v 0.1 0.6 -7.45058e-09
v 0.2 0.3 -7.45058e-09
v 0.2 0.7 -7.45058e-09
v 0.2 0.9 -7.45058e-09
v 0.2 1 -7.45058e-09
v 0.3 0 -7.45058e-09
v 0.3 0.1 -7.45058e-09
v 0.3 0.2 -7.45058e-09
v 0.3 0.8 -7.45058e-09
v 0.3 0.9 -7.45058e-09
v 0.3 1 -7.45058e-09
v 0.4 0.1 -7.45058e-09
v 0.4 0.2 -7.45058e-09
v 0.4 0.3 -7.45058e-09
v 0.4 0.4 -7.45058e-09
v 0.4 0.8 -7.45058e-09
v 0.4 0.9 -7.45058e-09
v 0.5 0.2 -7.45058e-09
v 0.5 0.3 -7.45058e-09
v 0.5 0.4 -7.45058e-09
v 0.5 0.8 -7.45058e-09
v -0.5 0.2 -0.1
v -0.5 0.3 -0.1
v -0.5 0.6 -0.1
v -0.5 0.7 -0.1
v -0.5 0.8 -0.1
v -0.4 0.1 -0.1
v -0.4 0.2 -0.1
v -0.4 0.3 -0.1
v -0.4 0.6 -0.1
v -0.4 0.7 -0.1
v -0.4 0.8 -0.1
v -0.4 0.9 -0.1
v -0.3 0 -0.1
v -0.3 0.1 -0.1
v -0.3 0.2 -0.1
v -0.3 0.8 -0.1
v -0.3 0.9 -0.1
v -0.3 1 -0.1
v -0.2 0 -0.1
v -0.2 0.1 -0.1
v -0.2 0.3 -0.1
v -0.2 0.7 -0.1
v -0.2 0.9 -0.1
v -0.2 1 -0.1
v -0.1 0.4 -0.1
v -0.1 0.6 -0.1
v 0.1 0 -0.1
v 0.1 0.1 -0.1
v 0.1 0.4 -0.1
v 0.1 0.6 -0.1
v 0.2 0.3 -0.1
v 0.2 0.7 -0.1
v 0.2 0.9 -0.1
v 0.2 1 -0.1
v 0.3 0 -0.1
v 0.3 0.1 -0.1
v 0.3 0.2 -0.1
v 0.3 0.8 -0.1
v 0.3 0.9 -0.1
v 0.3 1 -0.1
v 0.4 0.1 -0.1
v 0.4 0.2 -0.1
v 0.4 0.3 -0.1
v 0.4 0.4 -0.1
v 0.4 0.8 -0.1
v 0.4 0.9 -0.1
v 0.5 0.2 -0.1
v 0.5 0.3 -0.1
v 0.5 0.4 -0.1
v 0.5 0.8 -0.1
v -0.3 0 -7.45058e-09
v -0.2 0 -7.45058e-09
v 0.1 0 -7.45058e-09
v 0.3 0 -7.45058e-09
v -0.3 0 -0.1
v -0.2 0 -0.1
v 0.1 0 -0.1
v 0.3 0 -0.1
v -0.4 0.1 -7.45058e-09
v -0.3 0.1 -7.45058e-09
v 0.3 0.1 -7.45058e-09
v 0.4 0.1 -7.45058e-09
v -0.4 0.1 -0.1
v -0.3 0.1 -0.1
v 0.3 0.1 -0.1
v 0.4 0.1 -0.1
v -0.5 0.2 -7.45058e-09
v -0.4 0.2 -7.45058e-09
v 0.4 0.2 -7.45058e-09
v 0.5 0.2 -7.45058e-09
v -0.5 0.2 -0.1
v -0.4 0.2 -0.1
v 0.4 0.2 -0.1
v 0.5 0.2 -0.1
v -0.5 0.8 -7.45058e-09
v -0.4 0.8 -7.45058e-09
v 0.4 0.8 -7.45058e-09
v 0.5 0.8 -7.45058e-09
v -0.5 0.8 -0.1
v -0.4 0.8 -0.1
v 0.4 0.8 -0.1
v 0.5 0.8 -0.1
v -0.4 0.9 -7.45058e-09
v -0.3 0.9 -7.45058e-09
v 0.3 0.9 -7.45058e-09
v 0.4 0.9 -7.45058e-09
v -0.4 0.9 -0.1
v -0.3 0.9 -0.1
v 0.3 0.9 -0.1
v 0.4 0.9 -0.1
v -0.3 1 -7.45058e-09
v -0.2 1 -7.45058e-09
v 0.2 1 -7.45058e-09
v 0.3 1 -7.45058e-09
v -0.3 1 -0.1
v -0.2 1 -0.1
v 0.2 1 -0.1
v 0.3 1 -0.1

# faces
f 3/4/1 2/4/1 1/4/1
f 4/4/1 2/4/1 3/4/1
f 5/6/1 4/6/1 3/6/1
f 6/6/1 4/6/1 5/6/1
f 7/4/1 6/4/1 5/4/1
f 8/4/1 6/4/1 7/4/1
f 9/6/1 8/6/1 7/6/1
f 10/6/1 8/6/1 9/6/1
f 13/4/1 12/4/1 11/4/1
f 14/4/1 12/4/1 13/4/1
f 17/4/1 16/4/1 15/4/1
f 18/4/1 16/4/1 17/4/1
f 21/4/1 20/4/1 19/4/1
f 22/4/1 20/4/1 21/4/1
f 25/6/1 24/6/1 23/6/1
f 26/6/1 24/6/1 25/6/1
f 27/4/2 28/4/2 29/4/2
f 29/4/2 28/4/2 30/4/2
f 31/6/2 32/6/2 33/6/2
f 33/6/2 32/6/2 34/6/2
f 35/4/2 36/4/2 37/4/2
f 37/4/2 36/4/2 38/4/2
f 39/4/2 40/4/2 41/4/2
f 41/4/2 40/4/2 42/4/2
f 43/6/2 44/6/2 45/6/2
f 45/6/2 44/6/2 46/6/2
f 45/4/2 46/4/2 47/4/2
f 47/4/2 46/4/2 48/4/2
f 47/6/2 48/6/2 49/6/2
f 49/6/2 48/6/2 50/6/2
f 57/4/3 52/4/3 51/4/3
f 58/6/3 53/6/3 52/6/3
f 58/4/3 52/4/3 57/4/3
f 59/4/3 54/4/3 53/4/3
f 59/6/3 53/6/3 58/6/3
f 60/6/3 55/6/3 54/6/3
f 60/4/3 54/4/3 59/4/3
f 61/6/3 55/6/3 60/6/3
f 64/4/3 57/4/3 56/4/3
f 65/5/3 59/5/3 58/5/3
f 65/5/3 58/5/3 57/5/3
f 65/4/3 57/4/3 64/4/3
f 65/5/3 60/5/3 59/5/3
f 65/5/3 61/5/3 60/5/3
f 66/4/3 62/4/3 61/4/3
f 66/5/3 61/5/3 65/5/3
f 67/4/3 62/4/3 66/4/3
f 69/4/3 64/4/3 63/4/3
f 70/5/3 65/5/3 64/5/3
f 70/4/3 64/4/3 69/4/3
f 71/3/3 66/3/3 65/3/3
f 72/3/3 66/3/3 71/3/3
f 73/6/3 68/6/3 67/6/3
f 73/5/3 67/5/3 66/5/3
f 74/6/3 68/6/3 73/6/3
f 75/1/3 72/1/3 71/1/3
f 76/1/3 72/1/3 75/1/3
f 77/6/3 70/6/3 69/6/3
f 78/5/3 65/5/3 70/5/3
f 78/6/3 70/6/3 77/6/3
f 79/1/3 75/1/3 71/1/3
f 79/2/3 76/2/3 75/2/3
f 80/1/3 72/1/3 76/1/3
f 80/2/3 76/2/3 79/2/3
f 81/1/3 79/1/3 71/1/3
f 81/3/3 71/3/3 65/3/3
f 81/1/3 80/1/3 79/1/3
f 82/3/3 66/3/3 72/3/3
f 82/1/3 80/1/3 81/1/3
f 82/1/3 72/1/3 80/1/3
f 83/5/3 73/5/3 66/5/3
f 83/4/3 74/4/3 73/4/3
f 84/4/3 74/4/3 83/4/3
f 85/4/3 78/4/3 77/4/3
f 86/5/3 65/5/3 78/5/3
f 86/4/3 78/4/3 85/4/3
f 87/3/3 81/3/3 65/3/3
f 87/5/3 65/5/3 86/5/3
f 87/3/3 82/3/3 81/3/3
f 88/3/3 66/3/3 82/3/3
f 88/3/3 82/3/3 87/3/3
f 88/5/3 83/5/3 66/5/3
f 89/6/3 84/6/3 83/6/3
f 89/5/3 83/5/3 88/5/3
f 90/6/3 84/6/3 89/6/3
f 91/4/3 87/4/3 86/4/3
f 92/5/3 88/5/3 87/5/3
f 92/4/3 87/4/3 91/4/3
f 93/5/3 88/5/3 92/5/3
f 94/5/3 88/5/3 93/5/3
f 95/4/3 89/4/3 88/4/3
f 95/5/3 88/5/3 94/5/3
f 96/4/3 89/4/3 95/4/3
f 97/6/3 93/6/3 92/6/3
f 98/4/3 94/4/3 93/4/3
f 98/6/3 93/6/3 97/6/3
f 99/6/3 95/6/3 94/6/3
f 99/4/3 94/4/3 98/4/3
f 100/6/3 95/6/3 99/6/3
f 101/4/4 102/4/4 107/4/4
f 102/6/4 103/6/4 108/6/4
f 107/4/4 102/4/4 108/4/4
f 103/4/4 104/4/4 109/4/4
f 108/6/4 103/6/4 109/6/4
f 104/6/4 105/6/4 110/6/4
f 109/4/4 104/4/4 110/4/4
f 110/6/4 105/6/4 111/6/4
f 106/4/4 107/4/4 114/4/4
f 108/5/4 109/5/4 115/5/4
f 107/5/4 108/5/4 115/5/4
f 114/4/4 107/4/4 115/4/4
f 109/5/4 110/5/4 115/5/4
f 110/5/4 111/5/4 115/5/4
f 111/4/4 112/4/4 116/4/4
f 115/5/4 111/5/4 116/5/4
f 116/4/4 112/4/4 117/4/4
f 113/4/4 114/4/4 119/4/4
f 114/5/4 115/5/4 120/5/4
f 119/4/4 114/4/4 120/4/4
f 115/3/4 116/3/4 121/3/4
f 121/3/4 116/3/4 122/3/4
f 117/6/4 118/6/4 123/6/4
f 116/5/4 117/5/4 123/5/4
f 123/6/4 118/6/4 124/6/4
f 121/1/4 122/1/4 125/1/4
f 125/1/4 122/1/4 126/1/4
f 119/6/4 120/6/4 127/6/4
f 120/5/4 115/5/4 128/5/4
f 127/6/4 120/6/4 128/6/4
f 121/1/4 125/1/4 129/1/4
f 125/2/4 126/2/4 129/2/4
f 126/1/4 122/1/4 130/1/4
f 129/2/4 126/2/4 130/2/4
f 121/1/4 129/1/4 131/1/4
f 115/3/4 121/3/4 131/3/4
f 129/1/4 130/1/4 131/1/4
f 122/3/4 116/3/4 132/3/4
f 131/1/4 130/1/4 132/1/4
f 130/1/4 122/1/4 132/1/4
f 116/5/4 123/5/4 133/5/4
f 123/4/4 124/4/4 133/4/4
f 133/4/4 124/4/4 134/4/4
f 127/4/4 128/4/4 135/4/4
f 128/5/4 115/5/4 136/5/4
f 135/4/4 128/4/4 136/4/4
f 115/3/4 131/3/4 137/3/4
f 136/5/4 115/5/4 137/5/4
f 131/3/4 132/3/4 137/3/4
f 132/3/4 116/3/4 138/3/4
f 137/3/4 132/3/4 138/3/4
f 116/5/4 133/5/4 138/5/4
f 133/6/4 134/6/4 139/6/4
f 138/5/4 133/5/4 139/5/4
f 139/6/4 134/6/4 140/6/4
f 136/4/4 137/4/4 141/4/4
f 137/5/4 138/5/4 142/5/4
f 141/4/4 137/4/4 142/4/4
f 142/5/4 138/5/4 143/5/4
f 143/5/4 138/5/4 144/5/4
f 138/4/4 139/4/4 145/4/4
f 144/5/4 138/5/4 145/5/4
f 145/4/4 139/4/4 146/4/4
f 142/6/4 143/6/4 147/6/4
f 143/4/4 144/4/4 148/4/4
f 147/6/4 143/6/4 148/6/4
f 144/6/4 145/6/4 149/6/4
f 148/4/4 144/4/4 149/4/4
f 149/6/4 145/6/4 150/6/4
f 155/4/5 152/4/5 151/4/5
f 156/6/5 153/6/5 152/6/5
f 156/4/5 152/4/5 155/4/5
f 157/4/5 154/4/5 153/4/5
f 157/6/5 153/6/5 156/6/5
f 158/4/5 154/4/5 157/4/5
f 163/4/5 160/4/5 159/4/5
f 164/4/5 160/4/5 163/4/5
f 165/4/5 162/4/5 161/4/5
f 166/4/5 162/4/5 165/4/5
f 171/4/5 168/4/5 167/4/5
f 172/4/5 168/4/5 171/4/5
f 173/6/5 170/6/5 169/6/5
f 174/6/5 170/6/5 173/6/5
f 175/6/6 176/6/6 179/6/6
f 179/6/6 176/6/6 180/6/6
f 177/6/6 178/6/6 181/6/6
f 181/6/6 178/6/6 182/6/6
f 183/4/6 184/4/6 187/4/6
f 187/4/6 184/4/6 188/4/6
f 185/4/6 186/4/6 189/4/6
f 189/4/6 186/4/6 190/4/6
f 191/6/6 192/6/6 195/6/6
f 192/4/6 193/4/6 196/4/6
f 195/6/6 192/6/6 196/6/6
f 193/6/6 194/6/6 197/6/6
f 196/4/6 193/4/6 197/4/6
f 197/6/6 194/6/6 198/6/6
