# MagicaVoxel @ Ephtracy

# group
o 

# material
mtllib Coin.mtl
usemtl palette

# normals
vn -1 0 0
vn 1 0 0
vn 0 0 1
vn 0 0 -1
vn 0 -1 0
vn 0 1 0

# texcoords
vt 0.00195312 0.5
vt 0.0410156 0.5
vt 0.0683594 0.5

# verts
v -0.5 0.3 0.1
v -0.5 0.3 -1.49012e-08
v -0.5 0.7 0.1
v -0.5 0.7 -1.49012e-08
v -0.4 0.2 0.1
v -0.4 0.2 -1.49012e-08
v -0.4 0.3 0.1
v -0.4 0.3 -1.49012e-08
v -0.4 0.7 0.1
v -0.4 0.7 -1.49012e-08
v -0.4 0.8 0.1
v -0.4 0.8 -1.49012e-08
v -0.3 0.1 0.1
v -0.3 0.1 -1.49012e-08
v -0.3 0.2 0.1
v -0.3 0.2 -1.49012e-08
v -0.3 0.8 0.1
v -0.3 0.8 -1.49012e-08
v -0.3 0.9 0.1
v -0.3 0.9 -1.49012e-08
v -0.2 0 0.1
v -0.2 0 -1.49012e-08
v -0.2 0.1 0.1
v -0.2 0.1 -1.49012e-08
v -0.2 0.9 0.1
v -0.2 0.9 -1.49012e-08
v -0.2 1 0.1
v -0.2 1 -1.49012e-08
v 0.1 0 0.1
v 0.1 0 -1.49012e-08
v 0.1 0.1 0.1
v 0.1 0.1 -1.49012e-08
v 0.1 0.9 0.1
v 0.1 0.9 -1.49012e-08
v 0.1 1 0.1
v 0.1 1 -1.49012e-08
v 0.2 0.1 0.1
v 0.2 0.1 -1.49012e-08
v 0.2 0.2 0.1
v 0.2 0.2 -1.49012e-08
v 0.2 0.8 0.1
v 0.2 0.8 -1.49012e-08
v 0.2 0.9 0.1
v 0.2 0.9 -1.49012e-08
v 0.3 0.2 0.1
v 0.3 0.2 -1.49012e-08
v 0.3 0.3 0.1
v 0.3 0.3 -1.49012e-08
v 0.3 0.7 0.1
v 0.3 0.7 -1.49012e-08
v 0.3 0.8 0.1
v 0.3 0.8 -1.49012e-08
v 0.4 0.3 0.1
v 0.4 0.3 -1.49012e-08
v 0.4 0.7 0.1
v 0.4 0.7 -1.49012e-08
v -0.5 0.3 0.1
v -0.5 0.7 0.1
v -0.4 0.2 0.1
v -0.4 0.3 0.1
v -0.4 0.7 0.1
v -0.4 0.8 0.1
v -0.3 0.1 0.1
v -0.3 0.2 0.1
v -0.3 0.3 0.1
v -0.3 0.6 0.1
v -0.3 0.7 0.1
v -0.3 0.8 0.1
v -0.3 0.9 0.1
v -0.2 0 0.1
v -0.2 0.1 0.1
v -0.2 0.2 0.1
v -0.2 0.3 0.1
v -0.2 0.6 0.1
v -0.2 0.7 0.1
v -0.2 0.8 0.1
v -0.2 0.9 0.1
v -0.2 1 0.1
v -0.1 0.4 0.1
v -0.1 0.5 0.1
v 0 0.3 0.1
v 0 0.4 0.1
v 0 0.6 0.1
v 0 0.7 0.1
v 0.1 0 0.1
v 0.1 0.1 0.1
v 0.1 0.2 0.1
v 0.1 0.5 0.1
v 0.1 0.8 0.1
v 0.1 0.9 0.1
v 0.1 1 0.1
v 0.2 0.1 0.1
v 0.2 0.2 0.1
v 0.2 0.3 0.1
v 0.2 0.7 0.1
v 0.2 0.8 0.1
v 0.2 0.9 0.1
v 0.3 0.2 0.1
v 0.3 0.3 0.1
v 0.3 0.7 0.1
v 0.3 0.8 0.1
v 0.4 0.3 0.1
v 0.4 0.7 0.1
v -0.5 0.3 -1.49012e-08
v -0.5 0.7 -1.49012e-08
v -0.4 0.2 -1.49012e-08
v -0.4 0.3 -1.49012e-08
v -0.4 0.7 -1.49012e-08
v -0.4 0.8 -1.49012e-08
v -0.3 0.1 -1.49012e-08
v -0.3 0.2 -1.49012e-08
v -0.3 0.3 -1.49012e-08
v -0.3 0.6 -1.49012e-08
v -0.3 0.7 -1.49012e-08
v -0.3 0.8 -1.49012e-08
v -0.3 0.9 -1.49012e-08
v -0.2 0 -1.49012e-08
v -0.2 0.1 -1.49012e-08
v -0.2 0.2 -1.49012e-08
v -0.2 0.3 -1.49012e-08
v -0.2 0.6 -1.49012e-08
v -0.2 0.7 -1.49012e-08
v -0.2 0.8 -1.49012e-08
v -0.2 0.9 -1.49012e-08
v -0.2 1 -1.49012e-08
v -0.1 0.4 -1.49012e-08
v -0.1 0.5 -1.49012e-08
v 0 0.3 -1.49012e-08
v 0 0.4 -1.49012e-08
v 0 0.6 -1.49012e-08
v 0 0.7 -1.49012e-08
v 0.1 0 -1.49012e-08
v 0.1 0.1 -1.49012e-08
v 0.1 0.2 -1.49012e-08
v 0.1 0.5 -1.49012e-08
v 0.1 0.8 -1.49012e-08
v 0.1 0.9 -1.49012e-08
v 0.1 1 -1.49012e-08
v 0.2 0.1 -1.49012e-08
v 0.2 0.2 -1.49012e-08
v 0.2 0.3 -1.49012e-08
v 0.2 0.7 -1.49012e-08
v 0.2 0.8 -1.49012e-08
v 0.2 0.9 -1.49012e-08
v 0.3 0.2 -1.49012e-08
v 0.3 0.3 -1.49012e-08
v 0.3 0.7 -1.49012e-08
v 0.3 0.8 -1.49012e-08
v 0.4 0.3 -1.49012e-08
v 0.4 0.7 -1.49012e-08
v -0.2 0 0.1
v 0.1 0 0.1
v -0.2 0 -1.49012e-08
v 0.1 0 -1.49012e-08
v -0.3 0.1 0.1
v -0.2 0.1 0.1
v 0.1 0.1 0.1
v 0.2 0.1 0.1
v -0.3 0.1 -1.49012e-08
v -0.2 0.1 -1.49012e-08
v 0.1 0.1 -1.49012e-08
v 0.2 0.1 -1.49012e-08
v -0.4 0.2 0.1
v -0.3 0.2 0.1
v 0.2 0.2 0.1
v 0.3 0.2 0.1
v -0.4 0.2 -1.49012e-08
v -0.3 0.2 -1.49012e-08
v 0.2 0.2 -1.49012e-08
v 0.3 0.2 -1.49012e-08
v -0.5 0.3 0.1
v -0.4 0.3 0.1
v 0.3 0.3 0.1
v 0.4 0.3 0.1
v -0.5 0.3 -1.49012e-08
v -0.4 0.3 -1.49012e-08
v 0.3 0.3 -1.49012e-08
v 0.4 0.3 -1.49012e-08
v -0.5 0.7 0.1
v -0.4 0.7 0.1
v 0.3 0.7 0.1
v 0.4 0.7 0.1
v -0.5 0.7 -1.49012e-08
v -0.4 0.7 -1.49012e-08
v 0.3 0.7 -1.49012e-08
v 0.4 0.7 -1.49012e-08
v -0.4 0.8 0.1
v -0.3 0.8 0.1
v 0.2 0.8 0.1
v 0.3 0.8 0.1
v -0.4 0.8 -1.49012e-08
v -0.3 0.8 -1.49012e-08
v 0.2 0.8 -1.49012e-08
v 0.3 0.8 -1.49012e-08
v -0.3 0.9 0.1
v -0.2 0.9 0.1
v 0.1 0.9 0.1
v 0.2 0.9 0.1
v -0.3 0.9 -1.49012e-08
v -0.2 0.9 -1.49012e-08
v 0.1 0.9 -1.49012e-08
v 0.2 0.9 -1.49012e-08
v -0.2 1 0.1
v 0.1 1 0.1
v -0.2 1 -1.49012e-08
v 0.1 1 -1.49012e-08

# faces
f 3/3/1 2/3/1 1/3/1
f 4/3/1 2/3/1 3/3/1
f 7/3/1 6/3/1 5/3/1
f 8/3/1 6/3/1 7/3/1
f 11/3/1 10/3/1 9/3/1
f 12/3/1 10/3/1 11/3/1
f 15/3/1 14/3/1 13/3/1
f 16/3/1 14/3/1 15/3/1
f 19/3/1 18/3/1 17/3/1
f 20/3/1 18/3/1 19/3/1
f 23/3/1 22/3/1 21/3/1
f 24/3/1 22/3/1 23/3/1
f 27/3/1 26/3/1 25/3/1
f 28/3/1 26/3/1 27/3/1
f 29/3/2 30/3/2 31/3/2
f 31/3/2 30/3/2 32/3/2
f 33/3/2 34/3/2 35/3/2
f 35/3/2 34/3/2 36/3/2
f 37/3/2 38/3/2 39/3/2
f 39/3/2 38/3/2 40/3/2
f 41/3/2 42/3/2 43/3/2
f 43/3/2 42/3/2 44/3/2
f 45/3/2 46/3/2 47/3/2
f 47/3/2 46/3/2 48/3/2
f 49/3/2 50/3/2 51/3/2
f 51/3/2 50/3/2 52/3/2
f 53/3/2 54/3/2 55/3/2
f 55/3/2 54/3/2 56/3/2
f 60/3/3 58/3/3 57/3/3
f 61/3/3 58/3/3 60/3/3
f 64/3/3 60/3/3 59/3/3
f 65/2/3 61/2/3 60/2/3
f 65/3/3 60/3/3 64/3/3
f 66/2/3 61/2/3 65/2/3
f 67/3/3 62/3/3 61/3/3
f 67/2/3 61/2/3 66/2/3
f 68/3/3 62/3/3 67/3/3
f 71/3/3 64/3/3 63/3/3
f 72/2/3 65/2/3 64/2/3
f 72/3/3 64/3/3 71/3/3
f 73/1/3 66/1/3 65/1/3
f 73/2/3 65/2/3 72/2/3
f 74/2/3 67/2/3 66/2/3
f 74/1/3 66/1/3 73/1/3
f 74/2/3 68/2/3 67/2/3
f 75/2/3 68/2/3 74/2/3
f 76/3/3 69/3/3 68/3/3
f 76/2/3 68/2/3 75/2/3
f 77/3/3 69/3/3 76/3/3
f 79/2/3 74/2/3 73/2/3
f 80/2/3 74/2/3 79/2/3
f 81/1/3 73/1/3 72/1/3
f 81/2/3 79/2/3 73/2/3
f 82/1/3 80/1/3 79/1/3
f 82/2/3 79/2/3 81/2/3
f 83/1/3 75/1/3 74/1/3
f 83/2/3 74/2/3 80/2/3
f 84/2/3 76/2/3 75/2/3
f 84/1/3 75/1/3 83/1/3
f 84/2/3 77/2/3 76/2/3
f 85/3/3 71/3/3 70/3/3
f 86/2/3 72/2/3 71/2/3
f 86/3/3 71/3/3 85/3/3
f 87/1/3 82/1/3 81/1/3
f 87/2/3 72/2/3 86/2/3
f 87/1/3 81/1/3 72/1/3
f 88/1/3 80/1/3 82/1/3
f 88/1/3 82/1/3 87/1/3
f 88/2/3 83/2/3 80/2/3
f 88/2/3 84/2/3 83/2/3
f 89/2/3 77/2/3 84/2/3
f 89/2/3 84/2/3 88/2/3
f 90/3/3 78/3/3 77/3/3
f 90/2/3 77/2/3 89/2/3
f 91/3/3 78/3/3 90/3/3
f 92/3/3 87/3/3 86/3/3
f 93/2/3 88/2/3 87/2/3
f 93/3/3 87/3/3 92/3/3
f 93/2/3 89/2/3 88/2/3
f 94/2/3 89/2/3 93/2/3
f 95/2/3 89/2/3 94/2/3
f 96/3/3 90/3/3 89/3/3
f 96/2/3 89/2/3 95/2/3
f 97/3/3 90/3/3 96/3/3
f 98/3/3 94/3/3 93/3/3
f 99/2/3 95/2/3 94/2/3
f 99/3/3 94/3/3 98/3/3
f 100/3/3 96/3/3 95/3/3
f 100/2/3 95/2/3 99/2/3
f 101/3/3 96/3/3 100/3/3
f 102/3/3 100/3/3 99/3/3
f 103/3/3 100/3/3 102/3/3
f 104/3/4 105/3/4 107/3/4
f 107/3/4 105/3/4 108/3/4
f 106/3/4 107/3/4 111/3/4
f 107/2/4 108/2/4 112/2/4
f 111/3/4 107/3/4 112/3/4
f 112/2/4 108/2/4 113/2/4
f 108/3/4 109/3/4 114/3/4
f 113/2/4 108/2/4 114/2/4
f 114/3/4 109/3/4 115/3/4
f 110/3/4 111/3/4 118/3/4
f 111/2/4 112/2/4 119/2/4
f 118/3/4 111/3/4 119/3/4
f 112/1/4 113/1/4 120/1/4
f 119/2/4 112/2/4 120/2/4
f 113/2/4 114/2/4 121/2/4
f 120/1/4 113/1/4 121/1/4
f 114/2/4 115/2/4 121/2/4
f 121/2/4 115/2/4 122/2/4
f 115/3/4 116/3/4 123/3/4
f 122/2/4 115/2/4 123/2/4
f 123/3/4 116/3/4 124/3/4
f 120/2/4 121/2/4 126/2/4
f 126/2/4 121/2/4 127/2/4
f 119/1/4 120/1/4 128/1/4
f 120/2/4 126/2/4 128/2/4
f 126/1/4 127/1/4 129/1/4
f 128/2/4 126/2/4 129/2/4
f 121/1/4 122/1/4 130/1/4
f 127/2/4 121/2/4 130/2/4
f 122/2/4 123/2/4 131/2/4
f 130/1/4 122/1/4 131/1/4
f 123/2/4 124/2/4 131/2/4
f 117/3/4 118/3/4 132/3/4
f 118/2/4 119/2/4 133/2/4
f 132/3/4 118/3/4 133/3/4
f 128/1/4 129/1/4 134/1/4
f 133/2/4 119/2/4 134/2/4
f 119/1/4 128/1/4 134/1/4
f 129/1/4 127/1/4 135/1/4
f 134/1/4 129/1/4 135/1/4
f 127/2/4 130/2/4 135/2/4
f 130/2/4 131/2/4 135/2/4
f 131/2/4 124/2/4 136/2/4
f 135/2/4 131/2/4 136/2/4
f 124/3/4 125/3/4 137/3/4
f 136/2/4 124/2/4 137/2/4
f 137/3/4 125/3/4 138/3/4
f 133/3/4 134/3/4 139/3/4
f 134/2/4 135/2/4 140/2/4
f 139/3/4 134/3/4 140/3/4
f 135/2/4 136/2/4 140/2/4
f 140/2/4 136/2/4 141/2/4
f 141/2/4 136/2/4 142/2/4
f 136/3/4 137/3/4 143/3/4
f 142/2/4 136/2/4 143/2/4
f 143/3/4 137/3/4 144/3/4
f 140/3/4 141/3/4 145/3/4
f 141/2/4 142/2/4 146/2/4
f 145/3/4 141/3/4 146/3/4
f 142/3/4 143/3/4 147/3/4
f 146/2/4 142/2/4 147/2/4
f 147/3/4 143/3/4 148/3/4
f 146/3/4 147/3/4 149/3/4
f 149/3/4 147/3/4 150/3/4
f 153/3/5 152/3/5 151/3/5
f 154/3/5 152/3/5 153/3/5
f 159/3/5 156/3/5 155/3/5
f 160/3/5 156/3/5 159/3/5
f 161/3/5 158/3/5 157/3/5
f 162/3/5 158/3/5 161/3/5
f 167/3/5 164/3/5 163/3/5
f 168/3/5 164/3/5 167/3/5
f 169/3/5 166/3/5 165/3/5
f 170/3/5 166/3/5 169/3/5
f 175/3/5 172/3/5 171/3/5
f 176/3/5 172/3/5 175/3/5
f 177/3/5 174/3/5 173/3/5
f 178/3/5 174/3/5 177/3/5
f 179/3/6 180/3/6 183/3/6
f 183/3/6 180/3/6 184/3/6
f 181/3/6 182/3/6 185/3/6
f 185/3/6 182/3/6 186/3/6
f 187/3/6 188/3/6 191/3/6
f 191/3/6 188/3/6 192/3/6
f 189/3/6 190/3/6 193/3/6
f 193/3/6 190/3/6 194/3/6
f 195/3/6 196/3/6 199/3/6
f 199/3/6 196/3/6 200/3/6
f 197/3/6 198/3/6 201/3/6
f 201/3/6 198/3/6 202/3/6
f 203/3/6 204/3/6 205/3/6
f 205/3/6 204/3/6 206/3/6
